{
  "accessors": [
    {
      "bufferView": 2,
      "componentType": 5126,
      "count": 4924,
      "max": [
        191.71522521972656,
        421.2184143066406,
        -495.3224182128906
      ],
      "min": [
        -107.21151733398438,
        390.69842529296875,
        -816.4581909179688
      ],
      "type": "VEC3"
    },
    {
      "bufferView": 2,
      "byteOffset": 59088,
      "componentType": 5126,
      "count": 4924,
      "max": [
        1.0,
        1.0,
        1.0
      ],
      "min": [
        -1.0,
        -1.0,
        -1.0
      ],
      "type": "VEC3"
    },
    {
      "bufferView": 3,
      "componentType": 5126,
      "count": 4924,
      "max": [
        1.0,
        1.0,
        1.0,
        1.0
      ],
      "min": [
        -1.0,
        -0.015068044885993004,
        -1.0,
        -1.0
      ],
      "type": "VEC4"
    },
    {
      "bufferView": 1,
      "componentType": 5126,
      "count": 4924,
      "max": [
        0.9619010090827942,
        0.4646100103855133
      ],
      "min": [
        0.02003300003707409,
        0.014758000150322914
      ],
      "type": "VEC2"
    },
    {
      "bufferView": 0,
      "componentType": 5125,
      "count": 23040,
      "type": "SCALAR"
    },
    {
      "bufferView": 2,
      "byteOffset": 118176,
      "componentType": 5126,
      "count": 5867,
      "max": [
        168.15911865234375,
        489.731201171875,
        -515.119384765625
      ],
      "min": [
        -73.226318359375,
        389.5018310546875,
        -756.7225341796875
      ],
      "type": "VEC3"
    },
    {
      "bufferView": 2,
      "byteOffset": 188580,
      "componentType": 5126,
      "count": 5867,
      "max": [
        1.0,
        1.0,
        1.0
      ],
      "min": [
        -1.0,
        -1.0,
        -1.0
      ],
      "type": "VEC3"
    },
    {
      "bufferView": 3,
      "byteOffset": 78784,
      "componentType": 5126,
      "count": 5867,
      "max": [
        1.0,
        1.0,
        1.0,
        1.0
      ],
      "min": [
        -0.9993695020675659,
        -1.0,
        -1.0,
        -1.0
      ],
      "type": "VEC4"
    },
    {
      "bufferView": 1,
      "byteOffset": 39392,
      "componentType": 5126,
      "count": 5867,
      "max": [
        0.9884340167045593,
        0.9975990056991577
      ],
      "min": [
        0.0,
        0.0
      ],
      "type": "VEC2"
    },
    {
      "bufferView": 0,
      "byteOffset": 92160,
      "componentType": 5125,
      "count": 21297,
      "type": "SCALAR"
    },
    {
      "bufferView": 2,
      "byteOffset": 258984,
      "componentType": 5126,
      "count": 4045,
      "max": [
        300.1320495605469,
        351.05621337890625,
        287.0844421386719
      ],
      "min": [
        -73.90869140625,
        -41.90412902832031,
        -774.6932983398438
      ],
      "type": "VEC3"
    },
    {
      "bufferView": 2,
      "byteOffset": 307524,
      "componentType": 5126,
      "count": 4045,
      "max": [
        0.9999448657035828,
        1.0,
        0.9979770183563232
      ],
      "min": [
        -0.9920603632926941,
        -1.0,
        -0.9979721307754517
      ],
      "type": "VEC3"
    },
    {
      "bufferView": 3,
      "byteOffset": 172656,
      "componentType": 5126,
      "count": 4045,
      "max": [
        1.0,
        0.9999370574951172,
        1.0,
        1.0
      ],
      "min": [
        -0.9988827109336853,
        -1.0,
        -1.0,
        -1.0
      ],
      "type": "VEC4"
    },
    {
      "bufferView": 1,
      "byteOffset": 86328,
      "componentType": 5126,
      "count": 4045,
      "max": [
        0.9293220043182373,
        0.9947699904441833
      ],
      "min": [
        0.0,
        0.0
      ],
      "type": "VEC2"
    },
    {
      "bufferView": 0,
      "byteOffset": 177348,
      "componentType": 5125,
      "count": 21189,
      "type": "SCALAR"
    },
    {
      "bufferView": 2,
      "byteOffset": 356064,
      "componentType": 5126,
      "count": 909,
      "max": [
        455.22344970703125,
        235.308349609375,
        312.7966613769531
      ],
      "min": [
        -83.75132751464844,
        173.134521484375,
        -755.199951171875
      ],
      "type": "VEC3"
    },
    {
      "bufferView": 2,
      "byteOffset": 366972,
      "componentType": 5126,
      "count": 909,
      "max": [
        0.9984673857688904,
        1.0,
        0.9999964833259583
      ],
      "min": [
        -0.9996591210365295,
        -1.0,
        -0.9999444484710693
      ],
      "type": "VEC3"
    },
    {
      "bufferView": 3,
      "byteOffset": 237376,
      "componentType": 5126,
      "count": 909,
      "max": [
        1.0,
        0.9999708533287048,
        0.9999933242797852,
        1.0
      ],
      "min": [
        -0.9999531507492065,
        -0.9954256415367126,
        -0.9999698996543884,
        -1.0
      ],
      "type": "VEC4"
    },
    {
      "bufferView": 1,
      "byteOffset": 118688,
      "componentType": 5126,
      "count": 909,
      "max": [
        1.0016740560531616,
        1.0029200315475464
      ],
      "min": [
        0.0,
        0.0
      ],
      "type": "VEC2"
    },
    {
      "bufferView": 0,
      "byteOffset": 262104,
      "componentType": 5125,
      "count": 2778,
      "type": "SCALAR"
    }
  ],
  "asset": {
    "extras": {
      "author": "crittaa (https://sketchfab.com/crittaa)",
      "license": "CC-BY-4.0 (http://creativecommons.org/licenses/by/4.0/)",
      "source": "https://sketchfab.com/3d-models/roulette-table-2-e175a88621894641b793d04d06d335e3",
      "title": "Roulette Table 2"
    },
    "generator": "Sketchfab-12.68.0",
    "version": "2.0"
  },
  "bufferViews": [
    {
      "buffer": 0,
      "byteLength": 273216,
      "name": "floatBufferViews",
      "target": 34963
    },
    {
      "buffer": 0,
      "byteLength": 125960,
      "byteOffset": 273216,
      "byteStride": 8,
      "name": "floatBufferViews",
      "target": 34962
    },
    {
      "buffer": 0,
      "byteLength": 377880,
      "byteOffset": 399176,
      "byteStride": 12,
      "name": "floatBufferViews",
      "target": 34962
    },
    {
      "buffer": 0,
      "byteLength": 251920,
      "byteOffset": 777056,
      "byteStride": 16,
      "name": "floatBufferViews",
      "target": 34962
    }
  ],
  "buffers": [
    {
      "byteLength": 1028976,
      "uri": "scene.bin"
    }
  ],
  "images": [
    {
      "uri": "textures/lambert1_baseColor.jpeg"
    },
    {
      "uri": "textures/lambert1_metallicRoughness.png"
    },
    {
      "uri": "textures/lambert1_normal.png"
    }
  ],
  "materials": [
    {
      "doubleSided": true,
      "name": "lambert1",
      "normalTexture": {
        "index": 2
      },
      "occlusionTexture": {
        "index": 1
      },
      "pbrMetallicRoughness": {
        "baseColorTexture": {
          "index": 0
        },
        "metallicRoughnessTexture": {
          "index": 1
        }
      }
    }
  ],
  "meshes": [
    {
      "name": "defaultMaterial",
      "primitives": [
        {
          "attributes": {
            "NORMAL": 1,
            "POSITION": 0,
            "TANGENT": 2,
            "TEXCOORD_0": 3
          },
          "indices": 4,
          "material": 0,
          "mode": 4
        }
      ]
    },
    {
      "name": "defaultMaterial",
      "primitives": [
        {
          "attributes": {
            "NORMAL": 6,
            "POSITION": 5,
            "TANGENT": 7,
            "TEXCOORD_0": 8
          },
          "indices": 9,
          "material": 0,
          "mode": 4
        }
      ]
    },
    {
      "name": "defaultMaterial",
      "primitives": [
        {
          "attributes": {
            "NORMAL": 11,
            "POSITION": 10,
            "TANGENT": 12,
            "TEXCOORD_0": 13
          },
          "indices": 14,
          "material": 0,
          "mode": 4
        }
      ]
    },
    {
      "name": "defaultMaterial",
      "primitives": [
        {
          "attributes": {
            "NORMAL": 16,
            "POSITION": 15,
            "TANGENT": 17,
            "TEXCOORD_0": 18
          },
          "indices": 19,
          "material": 0,
          "mode": 4
        }
      ]
    }
  ],
  "nodes": [
    {
      "children": [
        1
      ],
      "matrix": [
        1.0,
        0.0,
        0.0,
        0.0,
        0.0,
        2.220446049250313e-16,
        -1.0,
        0.0,
        0.0,
        1.0,
        2.220446049250313e-16,
        0.0,
        0.0,
        0.0,
        0.0,
        1.0
      ],
      "name": "Sketchfab_model"
    },
    {
      "children": [
        2,
        4,
        6,
        8
      ],
      "matrix": [
        1.0,
        0.0,
        0.0,
        0.0,
        0.0,
        -4.371139006309477e-08,
        0.999999999999999,
        0.0,
        0.0,
        -0.999999999999999,
        -4.371139006309477e-08,
        0.0,
        0.0,
        0.0,
        0.0,
        1.0
      ],
      "name": "Collada visual scene group"
    },
    {
      "children": [
        3
      ],
      "name": "polySurface28"
    },
    {
      "mesh": 0,
      "name": "defaultMaterial"
    },
    {
      "children": [
        5
      ],
      "name": "polySurface35"
    },
    {
      "mesh": 1,
      "name": "defaultMaterial"
    },
    {
      "children": [
        7
      ],
      "name": "polySurface13"
    },
    {
      "mesh": 2,
      "name": "defaultMaterial"
    },
    {
      "children": [
        9
      ],
      "matrix": [
        1.141433,
        0.0,
        0.0,
        0.0,
        0.0,
        1.141433,
        0.0,
        0.0,
        0.0,
        0.0,
        1.141433,
        0.0,
        -26.269161,
        143.003784,
        31.285154,
        1.0
      ],
      "name": "pSphere12"
    },
    {
      "children": [
        10
      ],
      "name": "polySurface36"
    },
    {
      "mesh": 3,
      "name": "defaultMaterial"
    }
  ],
  "samplers": [
    {
      "magFilter": 9729,
      "minFilter": 9987,
      "wrapS": 10497,
      "wrapT": 10497
    }
  ],
  "scene": 0,
  "scenes": [
    {
      "name": "Sketchfab_Scene",
      "nodes": [
        0
      ]
    }
  ],
  "textures": [
    {
      "sampler": 0,
      "source": 0
    },
    {
      "sampler": 0,
      "source": 1
    },
    {
      "sampler": 0,
      "source": 2
    }
  ]
}
